<svg width="80" height="80" fill="none" xmlns="http://www.w3.org/2000/svg"><path d="M54.3 51.08a15.35 15.35 0 0 1 7.25-1.81h.01c.27 0 .4-.32.2-.5a33.18 33.18 0 0 0-9.25-5.84l-.1-.05a22 22 0 0 0 9.13-17.86A22.05 22.05 0 0 0 39.46 3 22.04 22.04 0 0 0 17.4 25.02c0 7.35 3.6 13.86 9.16 17.86l-.11.05a33.25 33.25 0 0 0-10.64 7.16A33.15 33.15 0 0 0 6 72.96a.7.7 0 0 0 .71.73h5.35c.38 0 .7-.31.71-.7a26.44 26.44 0 0 1 7.82-18.14 26.55 26.55 0 0 1 18.88-7.8c5.06 0 9.91 1.4 14.1 4a.73.73 0 0 0 .72.03ZM39.46 40.3a15.25 15.25 0 0 1-14.15-9.43 15.17 15.17 0 0 1 3.33-16.64 15.22 15.22 0 0 1 10.82-4.48c4.1 0 7.93 1.59 10.83 4.48a15.2 15.2 0 0 1 0 21.6 15.25 15.25 0 0 1-10.83 4.47ZM72.3 61.44h-7.5v-7.46a.7.7 0 0 0-.71-.71h-5a.7.7 0 0 0-.71.7v7.47h-7.5a.7.7 0 0 0-.7.7v4.98c0 .39.31.71.7.71h7.5v7.46c0 .39.32.71.71.71h5a.7.7 0 0 0 .71-.71v-7.46h7.5c.39 0 .71-.32.71-.71v-4.97a.7.7 0 0 0-.71-.71Z" fill="#000"/></svg>