<svg width="50" height="50" fill="none" xmlns="http://www.w3.org/2000/svg"><path d="M37.63 13.32A27.87 27.87 0 0 0 30.5 11a.1.1 0 0 0-.11.06c-.3.57-.65 1.32-.89 1.91a25.4 25.4 0 0 0-8 0c-.24-.6-.59-1.34-.9-1.91a.11.11 0 0 0-.11-.06 27.8 27.8 0 0 0-7.17 2.36 32.19 32.19 0 0 0-5.18 20.91c0 .04.03.07.05.09 3 2.3 5.9 3.7 8.74 4.63.05.02.1 0 .12-.04.68-.96 1.28-1.98 1.79-3.05a.12.12 0 0 0-.06-.16c-.95-.38-1.86-.84-2.73-1.37a.12.12 0 0 1-.01-.2l.54-.44a.1.1 0 0 1 .11-.01 19.82 19.82 0 0 0 17.6 0 .1.1 0 0 1 .1.01l.55.45c.07.05.06.15 0 .2-.88.53-1.79.98-2.74 1.36a.12.12 0 0 0-.06.16 24.69 24.69 0 0 0 1.79 3.05.1.1 0 0 0 .12.04 28.42 28.42 0 0 0 8.75-4.63.12.12 0 0 0 .05-.09 31.96 31.96 0 0 0-5.22-20.95ZM19.7 30.1c-1.73 0-3.15-1.66-3.15-3.7s1.4-3.7 3.15-3.7c1.76 0 3.17 1.67 3.14 3.7 0 2.04-1.4 3.7-3.14 3.7Zm11.63 0c-1.73 0-3.15-1.66-3.15-3.7s1.4-3.7 3.15-3.7c1.76 0 3.17 1.67 3.14 3.7 0 2.04-1.38 3.7-3.14 3.7Z" fill="#000"/></svg>