<svg width="100" height="100" viewBox="0 0 100 100" fill="none" xmlns="http://www.w3.org/2000/svg">
<path d="M39.4385 25.6581C39.4385 27.6946 39.5102 37.6581 39.5102 37.6581H31V50.4233L39.4385 50.3999L39.5102 90.8466H56.5305V50.4233L67.4312 50.3999C67.4312 50.3999 68.2546 44.7941 68.7639 37.6581C67.3014 37.6581 56.5305 37.6581 56.5305 37.6581C56.5305 37.6581 56.2537 28.8183 56.2537 27.4314C56.2537 26.0408 58.08 24.1697 59.8854 24.1697H69.0122C69.0122 22.3166 69.0122 15.9135 69.0122 10C64.3105 10 58.9621 10 56.6031 10C39.0242 10 39.4385 23.6235 39.4385 25.6581Z" fill="white"/>
</svg>
