<svg width="50" height="50" fill="none" xmlns="http://www.w3.org/2000/svg"><path fill-rule="evenodd" clip-rule="evenodd" d="M18.29 8.1c1.86-.08 2.46-.1 7.21-.1s5.35.02 7.21.1c1.87.09 3.14.39 4.25.82a8.58 8.58 0 0 1 3.1 2.02 8.58 8.58 0 0 1 2.02 3.1c.43 1.11.73 2.38.82 4.25.08 1.86.1 2.46.1 7.21s-.02 5.35-.1 7.21a12.84 12.84 0 0 1-.82 4.25 8.59 8.59 0 0 1-2.02 3.1 8.58 8.58 0 0 1-3.1 2.02c-1.11.43-2.38.73-4.25.82-1.86.08-2.46.1-7.21.1s-5.35-.02-7.21-.1a12.84 12.84 0 0 1-4.25-.82 8.59 8.59 0 0 1-3.1-2.02 8.58 8.58 0 0 1-2.02-3.1 12.86 12.86 0 0 1-.81-4.25C8 30.85 8 30.25 8 25.5s.02-5.35.1-7.21c.09-1.87.39-3.14.82-4.25a8.58 8.58 0 0 1 2.02-3.1 8.58 8.58 0 0 1 3.1-2.02c1.11-.43 2.38-.73 4.25-.81Zm14.28 3.16c-1.84-.09-2.4-.1-7.07-.1s-5.23.01-7.07.1c-1.7.07-2.63.36-3.25.6-.82.31-1.4.7-2.01 1.3-.62.62-1 1.2-1.31 2.02a9.66 9.66 0 0 0-.6 3.25c-.09 1.84-.1 2.4-.1 7.07s.01 5.23.1 7.07c.07 1.7.36 2.63.6 3.25.28.76.73 1.45 1.3 2.01a5.42 5.42 0 0 0 2.02 1.31 9.5 9.5 0 0 0 3.25.6c1.84.09 2.4.1 7.07.1s5.23-.01 7.07-.1a9.66 9.66 0 0 0 3.25-.6 5.4 5.4 0 0 0 2.01-1.3 5.42 5.42 0 0 0 1.31-2.02 9.5 9.5 0 0 0 .6-3.25c.09-1.84.1-2.4.1-7.07s-.01-5.23-.1-7.07a9.66 9.66 0 0 0-.6-3.25 5.4 5.4 0 0 0-1.3-2.01 5.3 5.3 0 0 0-2.02-1.31 9.66 9.66 0 0 0-3.25-.6Zm-9.3 19.63a5.84 5.84 0 1 0 4.46-10.78 5.84 5.84 0 0 0-4.46 10.78Zm-4.13-11.75a9 9 0 1 1 12.72 12.72 9 9 0 0 1-12.72-12.72Zm17.35-1.3a2.13 2.13 0 1 0-3-3 2.13 2.13 0 0 0 3 3Z" fill="#000"/></svg>