<svg width="80" height="80" fill="none" xmlns="http://www.w3.org/2000/svg"><path d="M60.34 48.59c-4.22 0-8 1.86-10.5 4.78L33.53 44.4a12.76 12.76 0 0 0 0-8.82l16.3-8.96a13.82 13.82 0 0 0 10.51 4.79C67.87 31.42 74 25.49 74 18.2 74 10.92 67.87 5 60.34 5S46.7 10.92 46.7 18.2c0 1.55.28 3.04.78 4.42l-16.3 8.95a13.82 13.82 0 0 0-10.51-4.78C13.13 26.8 7 32.72 7 40c0 7.28 6.13 13.2 13.66 13.2 4.22 0 8-1.85 10.5-4.77l16.31 8.95c-.5 1.38-.78 2.87-.78 4.41C46.69 69.08 52.8 75 60.34 75S74 69.08 74 61.8c0-7.29-6.13-13.21-13.66-13.21Zm0-38.97c4.9 0 8.88 3.85 8.88 8.59 0 4.73-3.98 8.58-8.88 8.58s-8.87-3.85-8.87-8.58c0-4.74 3.98-8.59 8.87-8.59ZM20.66 48.6c-4.9 0-8.88-3.86-8.88-8.59s3.98-8.58 8.88-8.58 8.88 3.85 8.88 8.58-3.99 8.59-8.88 8.59Zm39.68 21.79c-4.9 0-8.87-3.85-8.87-8.59 0-4.73 3.98-8.58 8.87-8.58 4.9 0 8.88 3.85 8.88 8.58 0 4.74-3.98 8.59-8.88 8.59Z" fill="#000"/></svg>