<svg width="50" height="50" fill="none" xmlns="http://www.w3.org/2000/svg"><path d="M41.81 33.03a18.14 18.14 0 0 0-3.6-4.26l-.03-.03-.02-.02-.02-.01h-.02a21.02 21.02 0 0 1-1.47-1.5c-.38-.48-.46-.98-.26-1.47.15-.38.7-1.18 1.64-2.4l1.19-1.54c2.1-2.8 3.01-4.58 2.73-5.36l-.1-.18c-.08-.1-.27-.2-.57-.3-.3-.1-.7-.1-1.17-.05l-5.25.04a.68.68 0 0 0-.36.01l-.24.05-.09.05-.07.05a.81.81 0 0 0-.2.2.97.97 0 0 0-.18.31 29.76 29.76 0 0 1-3.2 6.06 6.6 6.6 0 0 1-1.64 1.85c-.2.16-.36.23-.47.2l-.3-.07c-.18-.1-.31-.26-.42-.45a2 2 0 0 1-.2-.7 7.84 7.84 0 0 1-.06-1.62l.02-.76a45.39 45.39 0 0 1 .07-2.8l.02-1a3.56 3.56 0 0 0-.26-1.41.98.98 0 0 0-.37-.43 2.1 2.1 0 0 0-.61-.25c-.65-.15-1.47-.23-2.46-.24-2.26-.02-3.71.12-4.36.44-.25.13-.48.32-.69.55-.22.26-.25.41-.1.43.74.11 1.25.37 1.56.79l.1.22c.1.15.18.43.26.83a14.17 14.17 0 0 1 0 5.08 2.96 2.96 0 0 1-.47 1.27.31.31 0 0 1-.1.09c-.15.06-.31.09-.48.09-.17 0-.38-.09-.62-.26a4 4 0 0 1-.76-.7c-.26-.3-.56-.71-.88-1.25a18.9 18.9 0 0 1-1.02-1.9l-.3-.52a45.32 45.32 0 0 1-1.58-3.37 1.2 1.2 0 0 0-.44-.59l-.09-.05a1.93 1.93 0 0 0-.71-.27l-5 .03c-.5 0-.85.12-1.03.35l-.08.1a.59.59 0 0 0-.05.3c0 .13.04.3.1.5a60.13 60.13 0 0 0 4.62 8.8 45.4 45.4 0 0 0 3.74 4.95l.45.44c.3.29.72.64 1.29 1.05.56.4 1.19.8 1.87 1.2a9.7 9.7 0 0 0 5.06 1.26h2.1c.42-.03.74-.17.96-.4l.07-.09c.05-.07.1-.18.14-.33.04-.16.06-.32.06-.5a6 6 0 0 1 .12-1.42c.1-.42.2-.73.31-.94a2.33 2.33 0 0 1 .7-.8l.15-.07c.3-.1.63 0 1.03.28.4.29.77.64 1.11 1.06.35.42.76.89 1.25 1.41.49.52.91.91 1.28 1.17l.36.22c.24.14.56.28.95.4.39.12.73.15 1.02.09l4.66-.07c.46 0 .82-.08 1.08-.23.25-.15.4-.32.45-.5.05-.19.05-.4.01-.62a2.3 2.3 0 0 0-.13-.49Z" fill="#000"/></svg>