<svg xmlns="http://www.w3.org/2000/svg" width="400" height="400" version="1.0" viewBox="0 0 300 300"><path d="M109.5 51c-20.3 8.7-37.6 16.2-38.3 16.7-.9.5 11.1 7.4 36.2 20.6 20.6 10.9 38.4 20.1 39.5 20.4 2.2.6 82.4-39.8 81.3-40.9-1.1-1-79.1-32.8-80.5-32.8-.7.1-17.8 7.2-38.2 16zM82 186.8c0 58.3.3 75.2 1.3 76.5 2.8 3.8 16.6 3.9 20.7.2 1.9-1.7 2-3.2 2-36.7V192h84v69.1l2.5 2.4c2.2 2.2 4 2.7 10 2.7s7.8-.5 10-2.7l2.5-2.4v-74.6c0-44.5-.4-74.5-.9-74.5s-6.1 2.7-12.5 6.1l-11.6 6-.2 22.2-.3 22.2-40.3.2c-22.2.1-41-.1-41.8-.4-1.1-.4-1.4-4.3-1.4-22.2v-21.8l-2.7-1.4c-1.5-.8-6.7-3.5-11.5-6.2-4.8-2.6-8.9-4.7-9.2-4.7-.3 0-.6 33.7-.6 74.8z"/></svg>