<svg xmlns="http://www.w3.org/2000/svg" width="682.667" height="682.667" version="1.0" viewBox="0 0 512 512"><path d="m204.5 82-50 29.8-.3 30.2-.2 30.2 2.2-1.4c1.3-.8 19.6-11.7 40.8-24.3 21.2-12.5 42.9-25.4 48.3-28.6 5.4-3.3 10.2-5.9 10.7-5.9s23.3 13.3 50.7 29.6c27.4 16.3 50.1 29.8 50.6 30.1.4.2.7-13.1.7-29.6V112l-24.7-14.6c-13.7-8.1-36.4-21.6-50.5-30.1-14.2-8.4-26.3-15.3-27-15.2-.7 0-23.8 13.4-51.3 29.9zM154 300.6c0 73.4.1 77 2.1 86.7 7.6 37.4 34 62.3 74.8 70.4 13.1 2.6 38.4 2.3 52.1-.6 17.9-3.8 31.8-10.5 45.2-21.6 12.3-10.2 22.2-26.6 27-44.5 2.2-8.4 2.2-9.3 2.5-87.8l.4-79.2h-53l-.3 72.7-.3 72.8-2.3 6.5c-3.2 8.8-6.3 13.9-11.8 19.4-11 11-26.6 16.1-41.9 13.6-18.4-2.9-32.7-15.1-38.7-32.9-2.3-6.6-2.3-7-2.6-79.4l-.3-72.7H154v76.6z"/></svg>