<svg width="100" height="100" fill="none" xmlns="http://www.w3.org/2000/svg"><path d="M93.12 29.41c-.5-1.8-1.49-3.43-2.87-4.76a11.44 11.44 0 0 0-5.02-2.78c-7.04-1.85-35.26-1.85-35.26-1.85-11.76-.13-23.52.45-35.2 1.76a12 12 0 0 0-5.02 2.85 10.84 10.84 0 0 0-2.92 4.78A109.6 109.6 0 0 0 5 50.01c-.04 6.91.57 13.8 1.83 20.6a10.8 10.8 0 0 0 2.9 4.77 11.58 11.58 0 0 0 5.04 2.78c7.13 1.85 35.2 1.85 35.2 1.85 11.78.14 23.56-.45 35.26-1.76 1.9-.5 3.63-1.46 5.02-2.78a10.45 10.45 0 0 0 2.87-4.77c1.3-6.8 1.92-13.69 1.87-20.6.1-6.93-.53-13.86-1.87-20.69ZM41 62.85V37.18l23.47 12.84L41 62.85Z" fill="#fff"/></svg>